<?xml version="1.0" encoding="UTF-8" standalone="no"?>
<!-- Created with Inkscape (http://www.inkscape.org/) -->

<svg
   width="210mm"
   height="35mm"
   viewBox="0 0 210 35"
   version="1.1"
   id="svg1"
   inkscape:version="1.3.2 (091e20e, 2023-11-25)"
   sodipodi:docname="hepconvert_logo.svg"
   inkscape:export-filename="hepconvert_logo.png"
   inkscape:export-xdpi="96"
   inkscape:export-ydpi="96"
   xmlns:inkscape="http://www.inkscape.org/namespaces/inkscape"
   xmlns:sodipodi="http://sodipodi.sourceforge.net/DTD/sodipodi-0.dtd"
   xmlns="http://www.w3.org/2000/svg"
   xmlns:svg="http://www.w3.org/2000/svg">
  <sodipodi:namedview
     id="namedview1"
     pagecolor="#ffffff"
     bordercolor="#000000"
     borderopacity="0.25"
     inkscape:showpageshadow="2"
     inkscape:pageopacity="0.0"
     inkscape:pagecheckerboard="0"
     inkscape:deskcolor="#d1d1d1"
     inkscape:document-units="mm"
     showguides="false"
     inkscape:zoom="0.39757331"
     inkscape:cx="133.30875"
     inkscape:cy="193.67497"
     inkscape:window-width="1512"
     inkscape:window-height="861"
     inkscape:window-x="0"
     inkscape:window-y="39"
     inkscape:window-maximized="0"
     inkscape:current-layer="g6" />
  <defs
     id="defs1" />
  <g
     inkscape:label="Layer 1"
     inkscape:groupmode="layer"
     id="layer1">
    <g
       id="g4"
       style="stroke-width:1.03552"
       transform="matrix(0.96577512,0,0,0.965615,5.3818306,-7.9559296)">
      <g
         id="g2">
        <g
           id="g1"
           transform="translate(1.3242533,22.95753)">
          <g
             id="g24"
             transform="matrix(0.6709279,0,0,0.7196987,64.699111,-44.994026)"
             style="stroke-width:1.49021" />
        </g>
        <g
           id="g5"
           transform="matrix(1.0874688,0,0,1.0878914,-9.6444814,-3.5631092)"
           style="stroke-width:0.952045">
          <path
             style="font-size:32.3512px;fill:#588d8d;fill-opacity:1;stroke:#588d8d;stroke-width:0.147532;stroke-opacity:1"
             d="m 21.000128,36.694248 h -2.970121 v -10.04527 q 0,-1.216174 -0.142187,-2.274401 -0.142186,-1.074023 -0.521351,-1.674212 -0.394963,-0.663367 -1.137493,-0.979256 -0.742531,-0.331684 -1.92742,-0.331684 -1.216485,0 -2.543561,0.60019 -1.327076,0.600189 -2.5435613,1.532062 V 36.694248 H 6.2443121 V 12.118084 h 2.9701216 v 8.892275 q 1.3902693,-1.152995 2.8753303,-1.800568 1.485061,-0.647572 3.049114,-0.647572 2.859531,0 4.360391,1.721595 1.500859,1.721595 1.500859,4.959458 z m 20.49068,-8.513209 H 28.488626 q 0,1.626829 0.489755,2.843001 0.489754,1.200378 1.342874,1.974306 0.821523,0.758134 1.943218,1.1372 1.137493,0.379067 2.496166,0.379067 1.801031,0 3.617861,-0.71075 1.832628,-0.726544 2.606756,-1.421501 h 0.157984 v 3.237863 q -1.500859,0.631778 -3.064913,1.058228 -1.564053,0.42645 -3.286091,0.42645 -4.391988,0 -6.856558,-2.369167 -2.464568,-2.384962 -2.464568,-6.760025 0,-4.327679 2.353979,-6.870585 2.369778,-2.542907 6.224617,-2.542907 3.570464,0 5.497884,2.084868 1.943218,2.084866 1.943218,5.922918 z m -2.891129,-2.274401 q -0.0158,-2.337579 -1.184889,-3.616929 -1.153292,-1.27935 -3.52307,-1.27935 -2.385576,0 -3.807443,1.405706 -1.406068,1.405706 -1.595651,3.490573 z m 22.923654,1.753184 q 0,2.148046 -0.616143,3.932818 -0.616142,1.768979 -1.737837,3.000945 -1.042703,1.16879 -2.464569,1.816362 -1.406068,0.631778 -2.98592,0.631778 -1.374471,0 -2.496166,-0.300095 -1.105896,-0.300094 -2.259189,-0.931871 V 43.20156 H 45.993388 V 19.051847 h 2.970121 v 1.84795 q 1.18489,-0.995049 2.654152,-1.658417 1.48506,-0.679161 3.159704,-0.679161 3.191301,0 4.960735,2.416551 1.785233,2.400756 1.785233,6.681052 z m -3.064913,0.07897 q 0,-3.190479 -1.090098,-4.769923 -1.090098,-1.579446 -3.349287,-1.579446 -1.279679,0 -2.575158,0.552806 -1.295478,0.552806 -2.480368,1.45309 v 9.997886 q 1.263882,0.568601 2.164398,0.773928 0.916314,0.205329 2.069606,0.205329 2.480367,0 3.870637,-1.674213 1.39027,-1.674211 1.39027,-4.959457 z"
             id="text2"
             aria-label="hep  " />
          <g
             id="g3"
             style="stroke-width:1.37008"
             transform="matrix(0.67092791,0,0,0.7196987,65.325977,-53.662066)">
            <g
               id="g6">
              <path
                 d="m 0.11472168,100.15172 v 12.6478 H 20.852474 Z"
                 style="opacity:1;fill:#74bebe;fill-opacity:1;stroke:#64b6b6;stroke-width:0.313748;stroke-opacity:1"
                 id="path20"
                 sodipodi:nodetypes="cccc" />
              <path
                 d="M 20.852474,113.11487 H 0.11472168 v 12.6478 z"
                 style="opacity:1;fill:#588d8d;fill-opacity:1;stroke:#588d8d;stroke-width:0.313748;stroke-opacity:1"
                 id="path19"
                 sodipodi:nodetypes="cccc" />
            </g>
          </g>
          <path
             style="font-size:32.1473px;line-height:0;-inkscape-font-specification:sans-serif;fill:#64b6b6;fill-opacity:1;stroke:#64b6b6;stroke-width:0.218019;stroke-opacity:1"
             d="m 97.465381,35.232379 q -1.475406,0.706412 -2.80955,1.098863 -1.318448,0.392451 -2.80955,0.392451 -1.899193,0 -3.48447,-0.549431 -1.585277,-0.565131 -2.715376,-1.695389 -1.145793,-1.130259 -1.773626,-2.857042 -0.627832,-1.726785 -0.627832,-4.034396 0,-4.301262 2.354372,-6.750156 2.370067,-2.448893 6.246932,-2.448893 1.506798,0 2.950812,0.423847 1.459711,0.423847 2.668288,1.03607 v 3.28089 h -0.156958 q -1.349839,-1.051769 -2.793854,-1.616898 -1.428319,-0.56513 -2.793855,-0.56513 -2.511329,0 -3.97104,1.695388 -1.444014,1.67969 -1.444014,4.944882 0,3.171004 1.412622,4.88209 1.428319,1.695387 4.002432,1.695387 0.894662,0 1.820714,-0.23547 0.926054,-0.23547 1.663756,-0.612224 0.643529,-0.329658 1.208578,-0.690713 0.56505,-0.376753 0.894661,-0.64362 h 0.156958 z m 18.725109,-7.660642 q 0,4.285565 -2.19742,6.765854 -2.19741,2.48029 -5.88592,2.48029 -3.71992,0 -5.91732,-2.48029 -2.18173,-2.480289 -2.18173,-6.765854 0,-4.285564 2.18173,-6.765854 2.1974,-2.495988 5.91732,-2.495988 3.68851,0 5.88592,2.495988 2.19742,2.48029 2.19742,6.765854 z m -3.04499,0 q 0,-3.406474 -1.33414,-5.054768 -1.33415,-1.663992 -3.70421,-1.663992 -2.40146,0 -3.7356,1.663992 -1.31845,1.648294 -1.31845,5.054768 0,3.296587 1.33413,5.007674 1.33415,1.695388 3.71992,1.695388 2.35436,0 3.68851,-1.67969 1.34984,-1.695388 1.34984,-5.023372 z m 22.27236,8.759505 h -2.95082 V 26.34729 q 0,-1.208749 -0.14126,-2.260517 -0.14126,-1.067467 -0.51796,-1.663992 -0.39239,-0.659318 -1.1301,-0.973278 -0.7377,-0.32966 -1.91488,-0.32966 -1.20858,0 -2.52704,0.596527 -1.31844,0.596525 -2.52702,1.522709 v 13.092163 h -2.95081 V 18.796535 h 2.95081 v 1.946556 q 1.38124,-1.145957 2.85664,-1.789576 1.47541,-0.64362 3.0293,-0.64362 2.84093,0 4.33204,1.711086 1.4911,1.711086 1.4911,4.929184 z m 20.53012,-17.534707 -7.09451,17.534707 h -2.96651 l -7.04742,-17.534707 h 3.20194 l 5.43076,13.955554 5.38366,-13.955554 z M 174.2022,27.87 h -12.91765 q 0,1.616897 0.48657,2.825646 0.48657,1.193051 1.33415,1.962255 0.81618,0.753506 1.93058,1.130258 1.1301,0.376753 2.47994,0.376753 1.78932,0 3.59434,-0.706411 1.82071,-0.72211 2.58981,-1.412823 h 0.15696 v 3.218097 q -1.49111,0.627922 -3.04499,1.051769 -1.55389,0.423847 -3.26473,0.423847 -4.36344,0 -6.81198,-2.354706 -2.44855,-2.370403 -2.44855,-6.71876 0,-4.301262 2.33868,-6.828646 2.35437,-2.527384 6.18415,-2.527384 3.54726,0 5.46214,2.072141 1.93058,2.072141 1.93058,5.886764 z m -2.87232,-2.260517 q -0.0157,-2.32331 -1.17719,-3.594851 -1.1458,-1.271541 -3.50017,-1.271541 -2.37006,0 -3.78269,1.397125 -1.39692,1.397126 -1.58528,3.469267 z m 18.28562,-3.594851 h -0.15696 q -0.65922,-0.15698 -1.28706,-0.219773 -0.61213,-0.07849 -1.4597,-0.07849 -1.36555,0 -2.63691,0.612223 -1.27136,0.596525 -2.44854,1.554105 v 12.44854 h -2.95081 V 18.796535 h 2.95081 v 2.590175 q 1.75793,-1.412823 3.09208,-1.99365 1.34983,-0.596525 2.74676,-0.596525 0.7691,0 1.1144,0.04709 0.34531,0.03139 1.03593,0.141283 z m 11.88173,14.15963 q -0.83188,0.219772 -1.82072,0.361054 -0.97315,0.141282 -1.74224,0.141282 -2.68398,0 -4.08091,-1.444219 -1.39692,-1.44422 -1.39692,-4.630921 v -9.324634 h -1.99337 v -2.480289 h 1.99337 v -5.039071 h 2.95081 v 5.039071 h 6.08998 v 2.480289 h -6.08998 v 7.990301 q 0,1.381427 0.0628,2.166329 0.0628,0.769204 0.43948,1.44422 0.34531,0.627921 0.94176,0.926184 0.61213,0.282565 1.85209,0.282565 0.72201,0 1.50681,-0.204075 0.78479,-0.219773 1.1301,-0.361055 h 0.15696 z"
             id="text20"
             aria-label="convert" />
        </g>
      </g>
    </g>
  </g>
</svg>
